<svg id="Layer_1" data-name="Layer 1" 
	xmlns="http://www.w3.org/2000/svg" 
	xmlns:xlink="http://www.w3.org/1999/xlink" viewBox="0 0 86.5 29.42">
	<defs>
		<style>.cls-1{fill:#605f5c;}.cls-2{fill:#fc0b0b;}.cls-3{fill:#f99d03;}.cls-4{fill:url(#linear-gradient);}</style>
		<linearGradient id="linear-gradient" x1="3.39" y1="7.44" x2="63.41" y2="7.44" gradientUnits="userSpaceOnUse">
			<stop offset="0.01" stop-color="#f79c04"/>
			<stop offset="1" stop-color="#605f5c"/>
		</linearGradient>
	</defs>
	<path class="cls-1" d="M39.39,26.47H36l-2-3.33c-.15-.25-.3-.48-.44-.68a3.15,3.15,0,0,0-.41-.51,1.63,1.63,0,0,0-.45-.32,1,1,0,0,0-.5-.11h-.78v4.95H28.53V13.53h4.62q4.71,0,4.71,3.52a3.6,3.6,0,0,1-.21,1.25,3.27,3.27,0,0,1-.58,1,3.76,3.76,0,0,1-.92.8,4.93,4.93,0,0,1-1.19.52v0a1.76,1.76,0,0,1,.56.29,3.74,3.74,0,0,1,.52.47,8.45,8.45,0,0,1,.9,1.19ZM31.45,15.72v3.59h1.26a2.1,2.1,0,0,0,1.51-.54,1.8,1.8,0,0,0,.57-1.36c0-1.13-.67-1.69-2-1.69Z" transform="translate(-3.39 -2.09)"/>
	<path class="cls-1" d="M51.05,26.47H47.87L47,23.59h-4.6l-.91,2.88H38.28L43,13.53h3.46Zm-4.77-5.12L44.89,17a5.86,5.86,0,0,1-.21-1.17h-.07A4.93,4.93,0,0,1,44.38,17L43,21.35Z" transform="translate(-3.39 -2.09)"/>
	<path class="cls-1" d="M63.37,26.47H60.43L55.1,18.34a11.79,11.79,0,0,1-.65-1.07h0c0,.45.07,1.15.07,2.09v7.11H51.74V13.53h3.14L60,21.41c.23.35.45.7.65,1.05h0a15.65,15.65,0,0,1-.07-1.77V13.53h2.75Z" transform="translate(-3.39 -2.09)"/>
	<path class="cls-1" d="M75.93,26V23.09a5.63,5.63,0,0,0,1.71,1,5.43,5.43,0,0,0,1.85.33,3.88,3.88,0,0,0,1-.1,2,2,0,0,0,.69-.27,1.26,1.26,0,0,0,.41-.42,1,1,0,0,0,.14-.52,1.14,1.14,0,0,0-.22-.67,2.25,2.25,0,0,0-.59-.55,6.59,6.59,0,0,0-.89-.49q-.51-.24-1.11-.48a5.66,5.66,0,0,1-2.26-1.54,3.35,3.35,0,0,1-.74-2.2,3.55,3.55,0,0,1,.4-1.74,3.42,3.42,0,0,1,1.11-1.19A4.56,4.56,0,0,1,79,13.54,8.15,8.15,0,0,1,81,13.32a11.91,11.91,0,0,1,1.79.12,6.64,6.64,0,0,1,1.43.37v2.7a4.73,4.73,0,0,0-.7-.4,5.71,5.71,0,0,0-.79-.28,5.84,5.84,0,0,0-.81-.17,6.91,6.91,0,0,0-.76-.05,4.16,4.16,0,0,0-.9.09,2.16,2.16,0,0,0-.69.27,1.21,1.21,0,0,0-.43.41.92.92,0,0,0-.16.53,1,1,0,0,0,.18.59,1.82,1.82,0,0,0,.48.48,4.23,4.23,0,0,0,.77.45c.3.15.64.3,1,.46a12,12,0,0,1,1.39.69,4.7,4.7,0,0,1,1.06.83,3.07,3.07,0,0,1,.68,1.05,3.61,3.61,0,0,1,.23,1.37,3.63,3.63,0,0,1-.41,1.82,3.25,3.25,0,0,1-1.11,1.19,5.13,5.13,0,0,1-1.64.66,9.61,9.61,0,0,1-2,.19,10.92,10.92,0,0,1-2-.18A6.07,6.07,0,0,1,75.93,26Z" transform="translate(-3.39 -2.09)"/>
	<path class="cls-2" d="M45.52,12.82" transform="translate(-3.39 -2.09)"/>
	<path class="cls-2" d="M60.84,3.41" transform="translate(-3.39 -2.09)"/>
	<polygon class="cls-1" points="61.41 0 64.57 0 64.53 24.4 61.41 24.4 61.41 0"/>
	<polygon class="cls-1" points="68.46 11.46 71.94 11.46 67.4 17.63 72.32 24.4 68.64 24.4 64.2 17.68 68.46 11.46"/>
	<path class="cls-1" d="M86.7,14.27h-.76v2.16h-.6V14.27h-.75v-.49H86.7Z" transform="translate(-3.39 -2.09)"/>
	<path class="cls-1" d="M89.89,16.43H89.3V14.85c0-.18,0-.37,0-.57h0c0,.16-.06.28-.08.35l-.63,1.8h-.48l-.64-1.78a3.58,3.58,0,0,1-.08-.37h0q0,.39,0,.69v1.46h-.54V13.78h.87l.55,1.57a2.62,2.62,0,0,1,.09.38h0a2.51,2.51,0,0,1,.11-.38L89,13.78h.85Z" transform="translate(-3.39 -2.09)"/>
	<path class="cls-1" d="M21.76,31.44h-1.2L19.32,29.6s-.06-.12-.11-.24h0v2.08h-1V27.2h1v2h0a1.76,1.76,0,0,1,.12-.23L20.5,27.2h1.14l-1.48,2Z" transform="translate(-3.39 -2.09)"/>
	<path class="cls-1" d="M26,31.44H25l-1.75-2.66q-.15-.24-.21-.36h0c0,.15,0,.38,0,.69v2.33h-.9V27.2h1l1.68,2.58.22.35h0a3.71,3.71,0,0,1,0-.59V27.2H26Z" transform="translate(-3.39 -2.09)"/>
	<path class="cls-1" d="M28.75,31.52a1.94,1.94,0,0,1-1.48-.6,2.09,2.09,0,0,1-.58-1.54,2.32,2.32,0,0,1,.58-1.63,2,2,0,0,1,1.55-.62,2,2,0,0,1,1.47.59,2.5,2.5,0,0,1,0,3.18A2,2,0,0,1,28.75,31.52Zm0-3.57a1,1,0,0,0-.8.38,1.61,1.61,0,0,0-.29,1,1.56,1.56,0,0,0,.29,1,1,1,0,0,0,1.56,0,1.46,1.46,0,0,0,.29-1,1.61,1.61,0,0,0-.28-1A.9.9,0,0,0,28.79,28Z" transform="translate(-3.39 -2.09)"/>
	<path class="cls-1" d="M37.1,27.2,36,31.44H34.92l-.7-2.72a2.21,2.21,0,0,1-.07-.48h0a2.51,2.51,0,0,1-.08.48l-.72,2.72h-1.1L31.12,27.2h1.05L32.76,30a2.71,2.71,0,0,1,.06.49h0a2.46,2.46,0,0,1,.08-.5l.77-2.81h1l.69,2.85a2.67,2.67,0,0,1,.07.45h0a4,4,0,0,1,.06-.47l.59-2.83Z" transform="translate(-3.39 -2.09)"/>
	<path class="cls-1" d="M44.87,27.2l-1.12,4.24H42.69L42,28.72a2.21,2.21,0,0,1-.07-.48h0a2.51,2.51,0,0,1-.08.48l-.72,2.72H40L38.88,27.2h1l.6,2.82a4.41,4.41,0,0,1,0,.49h0a2.53,2.53,0,0,1,.09-.5l.76-2.81h1l.69,2.85a2.67,2.67,0,0,1,.07.45h0a2.67,2.67,0,0,1,.07-.47l.58-2.83Z" transform="translate(-3.39 -2.09)"/>
	<path class="cls-1" d="M49.08,31.44h-1V29.71H46.36v1.73h-1V27.2h1v1.69h1.76V27.2h1Z" transform="translate(-3.39 -2.09)"/>
	<path class="cls-1" d="M51.84,31.52a1.94,1.94,0,0,1-1.48-.6,2.09,2.09,0,0,1-.58-1.54,2.28,2.28,0,0,1,.59-1.63,2,2,0,0,1,1.54-.62,1.94,1.94,0,0,1,1.47.59,2.5,2.5,0,0,1,0,3.18A2,2,0,0,1,51.84,31.52Zm0-3.57a1,1,0,0,0-.8.38,1.61,1.61,0,0,0-.29,1,1.56,1.56,0,0,0,.29,1,1,1,0,0,0,1.56,0,1.46,1.46,0,0,0,.29-1,1.61,1.61,0,0,0-.28-1A.9.9,0,0,0,51.88,28Z" transform="translate(-3.39 -2.09)"/>
	<path class="cls-1" d="M59.3,28H58.09v3.46h-1V28H55.92V27.2H59.3Z" transform="translate(-3.39 -2.09)"/>
	<path class="cls-1" d="M61.66,31.52a2,2,0,0,1-1.49-.6,2.12,2.12,0,0,1-.57-1.54,2.28,2.28,0,0,1,.58-1.63,2,2,0,0,1,1.55-.62,2,2,0,0,1,1.47.59,2.22,2.22,0,0,1,.56,1.57,2.27,2.27,0,0,1-.58,1.61A2,2,0,0,1,61.66,31.52Zm0-3.57a1,1,0,0,0-.8.38,1.61,1.61,0,0,0-.29,1,1.56,1.56,0,0,0,.29,1,1,1,0,0,0,1.56,0,1.46,1.46,0,0,0,.29-1,1.61,1.61,0,0,0-.28-1A.9.9,0,0,0,61.7,28Z" transform="translate(-3.39 -2.09)"/>
	<path class="cls-1" d="M69.11,28H67.9v3.46H67V28H65.74V27.2h3.37Z" transform="translate(-3.39 -2.09)"/>
	<path class="cls-1" d="M73.25,31.44h-1.1l-.66-1.09-.14-.22L71.21,30a.72.72,0,0,0-.15-.11.41.41,0,0,0-.16,0h-.26v1.62h-1V27.2H71.2c1,0,1.55.38,1.55,1.15a1.3,1.3,0,0,1-.07.41,1.25,1.25,0,0,1-.19.34,1.3,1.3,0,0,1-.31.26,1.39,1.39,0,0,1-.39.17h0a.69.69,0,0,1,.19.1l.17.16c0,.06.11.12.16.19l.13.2Zm-2.61-3.53v1.18h.42a.67.67,0,0,0,.49-.17.58.58,0,0,0,.19-.45c0-.37-.22-.56-.67-.56Z" transform="translate(-3.39 -2.09)"/>
	<path class="cls-1" d="M77.1,29.6c0,1.28-.59,1.92-1.78,1.92s-1.73-.63-1.73-1.87V27.2h1v2.46c0,.69.27,1,.81,1s.79-.33.79-1V27.2h.95Z" transform="translate(-3.39 -2.09)"/>
	<path class="cls-1" d="M77.83,31.28v-1a1.88,1.88,0,0,0,.56.33,1.81,1.81,0,0,0,.61.1,1.42,1.42,0,0,0,.31,0,.69.69,0,0,0,.23-.09.35.35,0,0,0,.13-.14.31.31,0,0,0,0-.17.44.44,0,0,0-.07-.22,1.2,1.2,0,0,0-.2-.18,2.52,2.52,0,0,0-.29-.16l-.36-.15a1.86,1.86,0,0,1-.74-.51,1.07,1.07,0,0,1-.25-.72,1.26,1.26,0,0,1,.13-.57,1.06,1.06,0,0,1,.37-.39,1.5,1.5,0,0,1,.53-.23,2.62,2.62,0,0,1,.64-.07,3.57,3.57,0,0,1,.59,0,1.8,1.8,0,0,1,.47.12v.88L80.3,28,80.05,28l-.27-.05a1.1,1.1,0,0,0-.25,0,1.39,1.39,0,0,0-.3,0A.73.73,0,0,0,79,28a.35.35,0,0,0-.14.13.27.27,0,0,0-.05.18.41.41,0,0,0,.05.19.8.8,0,0,0,.16.16l.26.15.33.15a4,4,0,0,1,.46.22,1.56,1.56,0,0,1,.34.27,1,1,0,0,1,.23.35,1.25,1.25,0,0,1,.07.45,1.24,1.24,0,0,1-.13.6,1.06,1.06,0,0,1-.37.39,1.47,1.47,0,0,1-.53.21,3.41,3.41,0,0,1-.65.07,3.52,3.52,0,0,1-.66-.06A2,2,0,0,1,77.83,31.28Z" transform="translate(-3.39 -2.09)"/>
	<path class="cls-1" d="M84.4,28H83.19v3.46h-1V28H81V27.2H84.4Z" transform="translate(-3.39 -2.09)"/>
	<path class="cls-3" d="M13.68,15.9H10V26.47H7.07V15.9H3.4V13.53H13.68Z" transform="translate(-3.39 -2.09)"/>
	<path class="cls-3" d="M21.12,22v4.46H18.21V13.53h4.56c3.26,0,4.89,1.38,4.89,4.12a4,4,0,0,1-1.4,3.16A5.55,5.55,0,0,1,22.51,22Zm0-6.24v4h1.15c1.55,0,2.33-.68,2.33-2s-.78-2-2.33-2Z" transform="translate(-3.39 -2.09)"/>
	<rect class="cls-3" x="11.04" y="11.46" width="2.98" height="12.94"/>
	<path class="cls-4" d="M3.39,4.12,6,4.89v7.88H3.39Zm6.39,2L7.19,5.33v7.44H9.78ZM11,12.77h2.56V5L11,5.87Zm3.81,0h2.7V3.57l-2.7,1Zm3.88,0h2.67V6.55L18.68,3.93Zm3.8-5.07v5.07h2.66V10.39Zm3.94,5.06h2.49V9.85l-2.49.9Zm6.44,0V8.47l-2.69.93v3.37Zm3.77,0V9.16L34,8.4v4.37Zm1.23-3.29v3.29h2.56v-2.6Zm3.77,3.29H44.3V9.48l-2.67.66ZM48.2,8.54l-2.68.66v3.57H48.2Zm1.19,4.23H52V7.2l-2.56,1Zm6.42,0v-7l-2.63,1v6.06Zm1.28,0h2.53V4L57.09,5.16Zm3.75-9.41v9.41h2.57V2.11Z" transform="translate(-3.39 -2.09)"/>
</svg>